<?xml version="1.0" encoding="UTF-8" standalone="no"?>
<!DOCTYPE svg PUBLIC "-//W3C//DTD SVG 1.1//EN" "http://www.w3.org/Graphics/SVG/1.1/DTD/svg11.dtd">
<svg version="1.1" xmlns="http://www.w3.org/2000/svg" xmlns:xlink="http://www.w3.org/1999/xlink" preserveAspectRatio="xMidYMid meet" viewBox="0 0 640 640" width="16" height="16"><defs><path d="M640 440C640 417.91 622.09 400 600 400C592 400 552 400 480 400C480 408 480 472 480 480C544 480 584 480 600 480C622.09 480 640 462.09 640 440ZM420 80C416 80 384 80 380 80C368.95 80 360 88.95 360 100C360 101.33 360 108 360 120C336 120 322.67 120 320 120C224.96 120.01 143.04 186.89 124 280C115.73 280 74.4 280 0 280C0 288 0 352 0 360C74.4 360 115.73 360 124 360C143.04 453.11 224.96 519.99 320 520C322.67 520 336 520 360 520C360 532 360 538.67 360 540C360 551.05 368.95 560 380 560C384 560 416 560 420 560C431.05 560 440 551.05 440 540C440 452 440 144 440 100C440 88.95 431.05 80 420 80ZM640 200C640 177.91 622.09 160 600 160C592 160 552 160 480 160C480 168 480 232 480 240C544 240 584 240 600 240C622.09 240 640 222.09 640 200Z" id="d1dTAsxnjG"></path><path d="M640 440C640 417.91 622.09 400 600 400C592 400 552 400 480 400C480 408 480 472 480 480C544 480 584 480 600 480C622.09 480 640 462.09 640 440ZM420 80C416 80 384 80 380 80C368.95 80 360 88.95 360 100C360 101.33 360 108 360 120C336 120 322.67 120 320 120C224.96 120.01 143.04 186.89 124 280C115.73 280 74.4 280 0 280C0 288 0 352 0 360C74.4 360 115.73 360 124 360C143.04 453.11 224.96 519.99 320 520C322.67 520 336 520 360 520C360 532 360 538.67 360 540C360 551.05 368.95 560 380 560C384 560 416 560 420 560C431.05 560 440 551.05 440 540C440 452 440 144 440 100C440 88.95 431.05 80 420 80ZM640 200C640 177.91 622.09 160 600 160C592 160 552 160 480 160C480 168 480 232 480 240C544 240 584 240 600 240C622.09 240 640 222.09 640 200Z" id="k1olgWJ9sM"></path></defs><g><g><g><use xlink:href="#d1dTAsxnjG" opacity="1" fill="#000000" fill-opacity="1"></use><g><use xlink:href="#d1dTAsxnjG" opacity="1" fill-opacity="0" stroke="#000000" stroke-width="1" stroke-opacity="0"></use></g></g><g><use xlink:href="#k1olgWJ9sM" opacity="1" fill="#000000" fill-opacity="0"></use><g><use xlink:href="#k1olgWJ9sM" opacity="1" fill-opacity="0" stroke="#000000" stroke-width="1" stroke-opacity="0"></use></g></g></g></g></svg>